<?xml version="1.0" encoding="UTF-8"?>
<svg id="Capa_2" data-name="Capa 2" xmlns="http://www.w3.org/2000/svg" viewBox="0 0 175.95 170">
  <defs>
    <style>
      .cls-1 {
        fill: #24a385;
      }

      .cls-2 {
        fill: #00cc87;
      }
    </style>
  </defs>
  <g id="Capa_1-2" data-name="Capa 1">
    <g>
      <ellipse class="cls-2" cx="114.08" cy="15.38" rx="15.55" ry="15.38"/>
      <ellipse class="cls-1" cx="103.55" cy="71.14" rx="33.88" ry="33.53"/>
      <rect x="56.45" y="35.92" width="7.77" height="7.69"/>
      <rect x="110.19" y="11.54" width="7.77" height="7.69"/>
      <path d="M117.28,78.24c0,2-.53,3.87-1.57,5.59-1.06,1.71-2.6,3.08-4.62,4.1-.99.5-2.07.88-3.24,1.13v5.09h-7.16v-4.94c-1.41-.21-2.72-.58-3.95-1.1-2.11-.89-3.78-2.18-5.01-3.86-1.23-1.69-1.86-3.67-1.91-5.96h8.15c.11,1.54.66,2.76,1.65,3.65,1,.9,2.36,1.34,4.1,1.34s3.16-.42,4.17-1.26c1.02-.84,1.51-1.94,1.51-3.3,0-1.11-.34-2.02-1.03-2.74-.69-.71-1.55-1.28-2.57-1.7-1.04-.41-2.46-.86-4.26-1.36-2.47-.71-4.46-1.43-6-2.12-1.54-.7-2.86-1.76-3.96-3.18-1.1-1.42-1.65-3.3-1.65-5.66,0-2.22.56-4.15,1.67-5.8,1.12-1.65,2.7-2.91,4.72-3.78,1.22-.52,2.53-.9,3.96-1.1v-6.71h7.96v7.1c1.73.47,3.24,1.21,4.54,2.21,2.45,1.88,3.79,4.51,4.05,7.86h-8.36c-.07-1.28-.63-2.35-1.65-3.19-1.03-.84-2.39-1.27-4.1-1.27-1.48,0-2.66.38-3.55,1.13-.89.75-1.33,1.85-1.33,3.27,0,1.01.34,1.83,1.01,2.51.67.66,1.5,1.2,2.5,1.6s2.39.89,4.21,1.43c2.46.71,4.46,1.44,6.02,2.15,1.56.71,2.89,1.79,4.01,3.22,1.12,1.44,1.68,3.31,1.68,5.64Z"/>
      <path d="M60.82,63.35c-13.14,0-23.83-10.58-23.83-23.58s10.69-23.58,23.83-23.58c9.81,0,18.75,6.09,22.26,15.15l-5.94,2.25c-2.57-6.65-9.13-11.11-16.32-11.11-9.63,0-17.47,7.76-17.47,17.29s7.84,17.29,17.47,17.29v6.29Z"/>
      <path d="M170.88,103.89c-12.24,11.76-26.01,24.71-39.3,35.3-4.89,3.89-8.83,7.45-15.47,7.97l-53.92.07-4.02,4.36c-.05,1.29,4.05,2.99,2.79,5.07-.1.17-.85.31-1.17.69-1.09,1.29-1.72,1.66-2.76,2.71-1.42,1.42-6.05,6.83-7.6,7.13-1.35.26-.97-.69-1.63-1.28-10.98-10.1-20.84-21.58-32.73-30.65-1.87-1.42-4.37-4.03-4.75-6.36l-5.81-5.41c-.11-.65.1-1.09.43-1.63.69-1.12,7.92-8.24,9.35-9.53.58-.52,1.96-1.69,2.64-1.48l3,3.31c1.02-.95,2.43-1.73,3.44-2.65,9-8.2,15.8-18.58,28.08-22.52,13.21-4.23,27.45-1.44,37.75,7.55.4.32,2.18.11,2.72.13,1.01.05,2.01.1,3.02.15,1.91.09,3.83.22,5.74.24,2.8.03,5.6.18,8.4.31,2.49.12,5.19-.03,7.56.85.09.03.18.07.27.1,1.16.45,2.29,1,3.37,1.63.78.46,1.57.99,2,1.79.28.53.44,1.2.99,1.45.98.45,3.09-.86,4.01-1.29,1.44-.67,2.86-1.37,4.28-2.08,2.23-1.12,4.46-2.25,6.63-3.47,5-2.82,15.66-11.07,20.55-11.81,8.32-1.26,19.39,3.89,16.86,13.76-.67,2.61-2.97,3.91-4.7,5.58ZM166.79,96.51c2.01-2.31-3.76-4.3-6.11-3.77-4.35.99-13.18,7.94-17.66,10.5-5.29,3.02-10.9,5.66-16.49,8.1-.82,7.91-4.89,13.37-13,14.9l-27.72-.05c-1.65-.48-1.99-8,.35-8.25,8.05-.54,16.94.68,24.89,0,3.54-.3,6.64-2.21,6.56-6.07-.09-4.02-3.39-5.72-7-6.05-7.25-.65-20.87,1.36-26.91-2.17-5.46-3.19-6.63-6.4-14.1-7.76-16.02-2.9-24.32,5.26-34.55,15.49-2.88,2.88-5.49,6.16-8.58,8.83l25.16,24.75c3.81-1.31,4.76-6.03,9.26-6.13,16.89-.39,34.52,1.45,51.44.39,8.6-.54,14.14-6.66,20.44-11.91,11.76-9.81,22.2-21.05,34.03-30.81Z"/>
      <polygon class="cls-2" points="49.13 170 0 123.22 14.77 108.03 63.9 154.81 49.13 170"/>
    </g>
  </g>
</svg>